<svg id="Слой_1" data-name="Слой 1" xmlns="http://www.w3.org/2000/svg" viewBox="0 0 946 261.37"><defs><style>.cls-1{fill:#eb3c27;}</style></defs><title>Монтажная область 1</title><path class="cls-1" d="M81.55,69.79Q78.87,85.15,71.14,92.4T50,99.64H0L17.32.49h52q12.11,0,16.61,6.35t2.36,18.54A53.25,53.25,0,0,1,86.74,32a28.43,28.43,0,0,1-2.39,5.6,23,23,0,0,1-3.73,4.87,45.08,45.08,0,0,1-5.5,4.62,16.29,16.29,0,0,1,6.55,9.27Q83,61.69,81.55,69.79ZM56.63,23.59H36.3L33.41,40.18H56.53a8.1,8.1,0,0,0,7.86-6.86h0A8.15,8.15,0,0,0,56.63,23.59ZM51.15,60.08H29.93L27,76.79H51.15A8.08,8.08,0,0,0,59,69.94h0A8.25,8.25,0,0,0,51.15,60.08Z"/><path class="cls-1" d="M85.68,99.64,102,.61H123.7L111.15,76.79h36.94l-3.76,22.85Z"/><path class="cls-1" d="M239.81,60.94a95.55,95.55,0,0,1-5.34,19.41,33,33,0,0,1-8.13,12.05,28,28,0,0,1-12,6.2,70.66,70.66,0,0,1-17,1.78H185.64a63.34,63.34,0,0,1-16.5-1.78,17.63,17.63,0,0,1-9.76-6.2q-3.31-4.43-3.67-12.05a89.36,89.36,0,0,1,1.81-19.41l3.95-21.62a98,98,0,0,1,5.29-19.42,32.47,32.47,0,0,1,8.07-12,27.35,27.35,0,0,1,12-6.14A73.45,73.45,0,0,1,204,0h11.64A65,65,0,0,1,232,1.72a17.29,17.29,0,0,1,9.77,6.14q3.32,4.43,3.73,12t-1.75,19.42Zm-28-37.35h-16a8.93,8.93,0,0,0-8.79,7.33l-6.46,35.33a8.93,8.93,0,0,0,8.79,10.54h16a8.93,8.93,0,0,0,8.79-7.33l6.46-35.33A8.93,8.93,0,0,0,211.84,23.59Z"/><path class="cls-1" d="M330.54,23.59H290.18a8.77,8.77,0,0,0-8.75,6.84L274.31,67c-1,5.12,3.2,9.83,8.75,9.83h37.11l-4.45,22.85H279.88a74.2,74.2,0,0,1-17.58-1.72q-6.87-1.73-10.39-6.21T248,79.59Q247.65,72,250,60.16L253.88,40a106.47,106.47,0,0,1,5.42-19.44,31.65,31.65,0,0,1,8.16-12,28.56,28.56,0,0,1,12.31-6.22,77.37,77.37,0,0,1,18-1.78H335Z"/><path class="cls-1" d="M351,99.41l-20.32.23,18.43-99L369.65.55,364,26.41a4.21,4.21,0,0,0,6.87,3.93L404.06.61h27.65l-45.59,45,28.66,54.05H386.17L364.9,61.43a3.81,3.81,0,0,0-7.08,1.15Z"/><path class="cls-1" d="M508.72,69.79Q506,85.15,498.18,92.4t-21.4,7.24H426.22L443.74.49h52.6q12.27,0,16.81,6.35t2.39,18.54A53.16,53.16,0,0,1,514,32a28.51,28.51,0,0,1-2.42,5.6,22.85,22.85,0,0,1-3.77,4.87,45.38,45.38,0,0,1-5.57,4.62,16.32,16.32,0,0,1,6.64,9.27Q510.14,61.69,508.72,69.79Zm-25.26-46.2H463L460,40.18h23.44a8.1,8.1,0,0,0,7.89-6.81h0A8.21,8.21,0,0,0,483.46,23.59ZM478,60.08H456.5l-2.95,16.71H478a8.15,8.15,0,0,0,7.94-6.85h0A8.27,8.27,0,0,0,478,60.08Z"/><path class="cls-1" d="M596.91,60.94a99.59,99.59,0,0,1-5.12,19.41A33.13,33.13,0,0,1,584,92.4a26.39,26.39,0,0,1-11.52,6.2,65,65,0,0,1-16.32,1.78H545a58.19,58.19,0,0,1-15.8-1.78,16.81,16.81,0,0,1-9.35-6.2q-3.18-4.43-3.52-12.05a93.11,93.11,0,0,1,1.73-19.41L528.63.61h23.08L539.23,71.86a4.13,4.13,0,0,0,3.94,4.93h22.26A6.84,6.84,0,0,0,572.07,71L584.4.61h23.07Z"/><path class="cls-1" d="M602,99.64,606,76.79h43.12a7.67,7.67,0,0,0,7.49-6.41h0a7.76,7.76,0,0,0-7.49-9.22h-15q-14.7,0-20-7.38T611.51,31q2.76-15.5,10.73-23T644.91.49h41.65l-4.11,23.1H642a7.47,7.47,0,0,0-7.29,6.25h0a7.55,7.55,0,0,0,7.29,9h15.17q14.7,0,20.06,7.18t2.58,22.79Q677,84.29,669,92t-22.7,7.67Z"/><path class="cls-1" d="M776.32,1.59l-4.22,23.1H744.84l-13.9,76.05H706.86l13.9-76H693.5l4.22-23.1Z"/><path class="cls-1" d="M767.31,99.64,785.43.49h67.72l-4.22,24.2H805.29l-2.8,13.16h42l-4.08,23.46H798.4l-2.83,14.38H839.2l-4.17,24Z"/><path class="cls-1" d="M908,99.64,891.08,65h-7.73l-6.26,34.64H853.28L871.19.49h52.22a38.51,38.51,0,0,1,12.09,1.6,14.09,14.09,0,0,1,7.27,5.11,17.41,17.41,0,0,1,2.93,8.93c1.52,19-2.41,34.29-21.31,43.74a33.89,33.89,0,0,1-9.89,3.29c7.69,15.38,17.42,36.48,17.42,36.48Zm2.68-76H890.83l-3.37,18.68h23.22a9.28,9.28,0,0,0,9.08-7.66h0A9.31,9.31,0,0,0,910.68,23.59Z"/><path class="cls-1" d="M426.53,259.76H404l9.56-42-30,40.78a8.68,8.68,0,0,1-14-1.58l-16.44-37-5.35,39.82h-22.5l16.24-88.86a12.48,12.48,0,0,1,12.21-10.23h3.44a9,9,0,0,1,8.75,6.67l12.67,53.36a4.21,4.21,0,0,0,7.66,1.11L420,166.55a12.21,12.21,0,0,1,10.41-5.82h5a7.7,7.7,0,0,1,7.58,9.08Z"/><path class="cls-1" d="M529.31,261.37l22.71-99h21l-17.47,76.17h35.76l-5.25,22.86Z"/><path class="cls-1" d="M599.61,261.37l22.72-99h21l-17.47,76.17h35.76l-5.24,22.86Z"/><path class="cls-1" d="M529.43,181.63q-.33-7.62-3.39-12a16.14,16.14,0,0,0-9-6.21,54.16,54.16,0,0,0-15.23-1.78H491.05a60.53,60.53,0,0,0-15.73,1.78,25.08,25.08,0,0,0-11.1,6.21,33,33,0,0,0-7.5,12A100.78,100.78,0,0,0,451.78,201L441.6,261.37h22.24L469.91,228h31.5l-6.07,33.41h22.25L527.77,201A96.58,96.58,0,0,0,529.43,181.63Zm-56,26.88,1.34-7.37c1.11-6.13,6.07-10.55,11.84-10.55h12.56c4.67,0,8.18,4.62,7.28,9.59l-1.52,8.33Z"/></svg>