<?xml version="1.0" encoding="UTF-8"?>
<!DOCTYPE svg PUBLIC "-//W3C//DTD SVG 1.1//EN" "http://www.w3.org/Graphics/SVG/1.1/DTD/svg11.dtd">
<!-- Creator: CorelDRAW 2020 (Оценочная версия) -->
<svg xmlns="http://www.w3.org/2000/svg" xml:space="preserve" width="22.0132mm" height="5.0798mm" version="1.1" style="shape-rendering:geometricPrecision; text-rendering:geometricPrecision; image-rendering:optimizeQuality; fill-rule:evenodd; clip-rule:evenodd"
viewBox="0 0 2201.32 507.98"
 xmlns:xlink="http://www.w3.org/1999/xlink"
 xmlns:xodm="http://www.corel.com/coreldraw/odm/2003">
 <defs>
  <style type="text/css">
   <![CDATA[
    .fil2 {fill:#2B2A29}
    .fil3 {fill:#2B2A29;fill-rule:nonzero}
    .fil1 {fill:#2B2A29;fill-rule:nonzero}
    .fil0 {fill:#F00A0A;fill-rule:nonzero}
   ]]>
  </style>
 </defs>
 <g id="Слой_x0020_1">
  <metadata id="CorelCorpID_0Corel-Layer"/>
  <path class="fil0" d="M1289.93 75.59l167.63 139.28 185.63 -155.51 0 352.74 -94.41 0 -0.32 -150.03 -86.89 66.77 -172.13 -130.05c-0.83,-41.02 -0.26,65.88 0.49,-123.2z"/>
  <path class="fil1" d="M404.2 411c-19.58,0 -29.37,-2.19 -29.37,-6.59l-6.93 -132.32 -40.25 133.97c-0.88,2.64 -8.36,3.96 -22.44,3.96 -14.08,0 -21.34,-1.21 -21.78,-3.64l-41.57 -135.61 -4.62 131.65c-0.22,3.31 -4.4,5.56 -12.54,6.77 -8.14,1.21 -14.91,1.81 -20.3,1.81 -5.39,0 -10.61,-0.33 -15.67,-0.98 -10.56,-1.55 -15.73,-4.29 -15.51,-8.25l7.59 -214.49c0,-5.28 13.42,-7.92 40.26,-7.92 7.92,0 17.6,0.61 29.03,1.82 11.44,1.21 17.82,3.57 19.14,7.09l36.96 103.94 32.34 -104.27c1.98,-5.72 17.16,-8.58 45.53,-8.58 8.14,0 17.88,0.61 29.21,1.82 11.32,1.21 16.99,3.35 16.99,6.43l9.57 216.47c0,2.42 -4.29,4.18 -12.87,5.27 -8.58,1.11 -16.17,1.65 -22.77,1.65zm492.15 -171.58c0,22.88 -9.9,40.26 -29.7,52.13 10.78,3.96 19.8,10.78 27.06,20.46 7.26,9.68 10.89,23.38 10.89,41.08 0,17.71 -6.54,31.74 -19.63,42.08 -13.09,10.33 -31.84,15.5 -56.26,15.5l-77.88 0c-3.74,0 -6.82,-1.26 -9.23,-3.79 -2.42,-2.53 -3.63,-5.88 -3.63,-10.06l0 -211.19c0,-2.42 0.38,-4.01 1.15,-4.78 0.77,-0.77 2.37,-1.16 4.79,-1.16l75.23 0c51.47,0 77.21,19.91 77.21,59.73zm-95.03 -6.27l0 43.23 1.65 0c21.12,0 31.68,-7.04 31.68,-21.12 0,-7.7 -2.04,-13.31 -6.11,-16.83 -4.07,-3.52 -10.83,-5.28 -20.29,-5.28l-6.93 0zm0 82.16l0 42.9 5.94 0c9.46,0 16.39,-1.76 20.79,-5.28 4.4,-3.52 6.6,-9.13 6.6,-16.83 0,-7.7 -2.04,-13.09 -6.11,-16.17 -4.07,-3.08 -10.83,-4.62 -20.29,-4.62l-6.93 0z"/>
  <path class="fil2" d="M514.64 180.88l148.21 0c6.31,0 10.11,5.31 11.48,11.48 1.89,8.48 2.67,18.65 0,33.87 -1.09,6.22 -5.17,11.48 -11.48,11.48l-148.21 0c-6.32,0 -10.12,-5.32 -11.48,-11.48 -3.4,-15.28 -1.87,-22.66 0,-33.87 1.03,-6.23 5.16,-11.48 11.48,-11.48z"/>
  <path class="fil3" d="M1871.34 408.76c-18.8,0 -28.92,-3.03 -30.47,-9.07l-10.69 -41.81 -51.53 0 -9.4 40.19c-1.55,6.64 -11.67,10.05 -31.12,10.05 -10.37,0 -18.04,-0.6 -23.01,-1.79 -4.97,-1.18 -7.62,-2.13 -7.45,-2.75l57.36 -219.42c0.44,-1.67 14.8,-2.59 44.41,-2.59 29.6,0 43.97,0.92 44.4,2.59l56.07 219.74c0.37,1.46 -4.97,2.71 -14.91,3.57 -9.94,0.86 -17.83,1.29 -23.66,1.29zm-84.59 -92.04l34.03 0 -14.58 -67.09 -1.95 0 -17.5 67.09zm290.33 23.66l0.65 -44.08c0.05,-3.03 3.14,-5.03 9.4,-6 6.26,-0.97 11.47,-1.77 15.56,-1.46l12.64 0.98c8.29,0.63 12.36,3.57 12.32,6.8l-1.3 101.45c-4.32,3.02 -13.02,5.99 -26.09,8.91 -13.07,2.92 -28.04,4.38 -44.89,4.38 -31.33,0 -56.62,-10.16 -75.84,-30.47 -19.23,-20.31 -28.85,-50.13 -28.85,-89.45 0,-33.49 9.41,-60.72 28.2,-81.68 18.79,-20.95 44.83,-31.44 78.11,-31.44 15.12,0 28.79,1.46 41,4.38 12.21,2.92 20.58,6.86 25.12,11.83 0.21,1.73 0.32,4.97 0.32,9.72 0,4.76 -1.62,11.51 -4.86,20.26 -3.24,8.75 -6.92,15.29 -11.02,19.61 -4.1,4.31 -7.08,6.48 -8.91,6.48 -1.84,0 -3.79,-0.82 -5.84,-2.43 -2.04,-1.62 -6.1,-3.35 -12.15,-5.19 -6.05,-1.83 -11.88,-2.75 -17.5,-2.75 -13.4,0 -24.26,4.32 -32.57,12.96 -8.32,8.65 -12.48,22.04 -12.48,40.19 0,18.15 4.27,31.93 12.8,41.33 8.53,9.39 18.37,14.09 29.49,14.09 11.13,0 16.61,-2.81 16.69,-8.42z"/>
  <path class="fil0" d="M1189.46 391.21l0 -205.25c0,-4.62 11.17,-6.93 33.5,-6.93 22.32,0 33.49,2.32 33.49,6.93l0 164.22 56.52 0c3.96,0 6.71,5.17 8.25,15.51 0.66,5.06 0.99,7.7 0.99,12.98 0,5.28 -0.33,10.67 -0.99,16.17 -1.76,10.56 -4.62,15.83 -8.58,15.83l-107.34 0c-4.84,0 -8.69,-1.98 -11.55,-5.93 -2.86,-3.96 -4.29,-8.47 -4.29,-13.53z"/>
  <path class="fil2" d="M514.24 353.69l148.21 0c6.32,0 10.11,5.32 11.48,11.48 1.89,8.48 2.67,18.65 0,33.87 -1.09,6.22 -5.16,11.48 -11.48,11.48l-148.21 0c-6.31,0 -10.11,-5.31 -11.48,-11.48 -3.39,-15.28 -1.87,-22.66 0,-33.87 1.04,-6.23 5.17,-11.48 11.48,-11.48z"/>
  <path class="fil2" d="M514.24 266.49l148.21 0c6.32,0 10.11,5.32 11.48,11.48 1.89,8.48 2.67,18.65 0,33.87 -1.09,6.22 -5.16,11.48 -11.48,11.48l-148.21 0c-6.31,0 -10.11,-5.31 -11.48,-11.48 -3.39,-15.28 -1.87,-22.66 0,-33.87 1.04,-6.23 5.17,-11.48 11.48,-11.48z"/>
  <path class="fil2" d="M969.18 180.88l148.21 0c6.32,0 10.11,5.31 11.49,11.48 1.89,8.48 2.66,18.65 0,33.87 -1.09,6.22 -5.17,11.48 -11.49,11.48l-148.21 0c-6.31,0 -10.11,-5.32 -11.48,-11.48 -3.39,-15.28 -1.87,-22.66 0,-33.87 1.04,-6.23 5.17,-11.48 11.48,-11.48z"/>
  <path class="fil2" d="M968.79 353.39l148.21 0c6.31,0 10.11,5.32 11.48,11.48 1.89,8.48 2.66,18.65 0,33.87 -1.09,6.22 -5.17,11.49 -11.48,11.49l-148.21 0c-6.32,0 -10.12,-5.32 -11.49,-11.49 -3.39,-15.28 -1.86,-22.66 0,-33.87 1.04,-6.23 5.17,-11.48 11.49,-11.48z"/>
  <path class="fil2" d="M968.79 266.49l148.21 0c6.31,0 10.11,5.32 11.48,11.48 1.89,8.48 2.66,18.65 0,33.87 -1.09,6.22 -5.17,11.48 -11.48,11.48l-148.21 0c-6.32,0 -10.12,-5.31 -11.49,-11.48 -3.39,-15.28 -1.86,-22.66 0,-33.87 1.04,-6.23 5.17,-11.48 11.49,-11.48z"/>
 </g>
</svg>
