<svg id="Слой_1" data-name="Слой 1" xmlns="http://www.w3.org/2000/svg" viewBox="0 0 766.43 191.1"><defs><style>.cls-1{fill:#002a5b;}.cls-2{fill:#fff;}.cls-3{fill:#416085;}</style></defs><title>Монтажная область 1</title><path class="cls-1" d="M263.78,0H766.43a0,0,0,0,1,0,0V160.82a30.28,30.28,0,0,1-30.28,30.28H263.78a0,0,0,0,1,0,0V0A0,0,0,0,1,263.78,0Z"/><path class="cls-2" d="M342.26,52.83,331.74,92.15h-7.43l-7.84-28.92-7.11,28.92h-7.29L291.33,52.83h7.51l7.61,28.66,7.09-28.66h7.17l7.84,28.66L336,52.83Z"/><path class="cls-2" d="M363.47,92.76a14.32,14.32,0,0,1-12.2-5.88Q346.91,81,346.9,72.36A22.22,22.22,0,0,1,351.54,58a14.93,14.93,0,0,1,12.24-5.78A14.49,14.49,0,0,1,375.9,58q4.46,5.78,4.45,14.45,0,9.1-4.62,14.7A15.11,15.11,0,0,1,363.47,92.76Zm.06-5.71A8.14,8.14,0,0,0,370,83.88q2.64-3.16,2.65-11.49,0-6.76-2.19-10.62a7.29,7.29,0,0,0-6.8-3.84q-9.1,0-9.1,14.66,0,7.11,2.32,10.79A7.38,7.38,0,0,0,363.53,87.05Z"/><path class="cls-2" d="M420.31,92.15h-7.49L406.72,76h-10V92.15h-7.09V52.83h17.06q7.11,0,10.45,3.21a11,11,0,0,1,3.35,8.31q0,7.58-7.09,10.43ZM396.75,70.31h8.81c2.56,0,4.46-.53,5.71-1.61a5.53,5.53,0,0,0,1.87-4.44,5.29,5.29,0,0,0-1.84-4.19,7.66,7.66,0,0,0-5.16-1.6h-9.39Z"/><path class="cls-2" d="M461.2,92.15h-7.92l-8.3-20-7.61,10.08v9.94h-7.08V52.83h7.08V73.48c.91-1.4,1.56-2.37,2-2.91l13.05-17.74h7.18l-9.34,12.93Z"/><path class="cls-2" d="M465.09,82.67,472,81.2q1.23,5.85,9.51,5.85a9.63,9.63,0,0,0,5.8-1.5,4.46,4.46,0,0,0,2-3.71,5.24,5.24,0,0,0-.92-3c-.61-.92-1.93-1.63-3.95-2.15l-7.52-2a18.36,18.36,0,0,1-5.7-2.29,8.92,8.92,0,0,1-3-3.62,11.41,11.41,0,0,1-1.11-5,10.32,10.32,0,0,1,3.92-8.45,15.33,15.33,0,0,1,10-3.19,18.32,18.32,0,0,1,9.06,2.22,10,10,0,0,1,5.09,6.28l-6.74,1.67q-1.56-4.45-7.26-4.46a8,8,0,0,0-5.06,1.38,4.29,4.29,0,0,0-1.74,3.51q0,3.37,5.47,4.73l6.68,1.67c4.06,1,6.77,2.52,8.16,4.51a11.29,11.29,0,0,1,2.07,6.58,10.84,10.84,0,0,1-4.36,9.12q-4.37,3.33-11.31,3.33a20.71,20.71,0,0,1-10.24-2.45A12,12,0,0,1,465.09,82.67Z"/><path class="cls-2" d="M530.39,92.15H523.1V52.83H548v6.08H530.39V69.65h13.82v5.91H530.39Z"/><path class="cls-2" d="M569.14,92.76a14.32,14.32,0,0,1-12.2-5.88q-4.37-5.88-4.37-14.52A22.22,22.22,0,0,1,557.21,58a14.94,14.94,0,0,1,12.25-5.78A14.49,14.49,0,0,1,581.57,58Q586,63.78,586,72.45q0,9.1-4.62,14.7A15.11,15.11,0,0,1,569.14,92.76Zm.06-5.71a8.14,8.14,0,0,0,6.48-3.17q2.66-3.16,2.65-11.49,0-6.76-2.19-10.62a7.29,7.29,0,0,0-6.8-3.84q-9.11,0-9.1,14.66,0,7.11,2.32,10.79A7.39,7.39,0,0,0,569.2,87.05Z"/><path class="cls-2" d="M626,92.15H618.5L612.39,76h-10V92.15h-7.09V52.83h17.06q7.11,0,10.46,3.21a11,11,0,0,1,3.34,8.31q0,7.58-7.09,10.43ZM602.42,70.31h8.82c2.55,0,4.45-.53,5.7-1.61a5.53,5.53,0,0,0,1.87-4.44A5.29,5.29,0,0,0,617,60.07a7.66,7.66,0,0,0-5.16-1.6h-9.39Z"/><path class="cls-2" d="M692,92.15h-7.23V57.73L673.88,85.15h-3.72L659.21,57.73V92.15h-5.79V52.83h11.09l8.24,19.32,8.1-19.32H692Z"/><path class="cls-2" d="M728.94,92.15H703.38V52.83h25.3v5.85H710.47V69.34H725.1V75H710.47V86h18.47Z"/><rect class="cls-1" width="255.7" height="191.1"/><path class="cls-3" d="M330.74,143.65V124.33h5.84l3.51,13.18,3.47-13.18h5.85v19.32h-3.63V128.44L342,143.65h-3.76l-3.82-15.21v15.21Z"/><path class="cls-3" d="M377.84,143.65H373.6l-1.69-4.39h-7.73l-1.59,4.39h-4.14L366,124.33h4.12ZM370.66,136,368,128.83,365.38,136Z"/><path class="cls-3" d="M387,124.33h7.13a14.31,14.31,0,0,1,3.68.36,6.56,6.56,0,0,1,2.91,1.78,8.6,8.6,0,0,1,1.85,3.14,14.25,14.25,0,0,1,.63,4.56,12.9,12.9,0,0,1-.59,4.12,8.7,8.7,0,0,1-2.07,3.41,6.81,6.81,0,0,1-2.75,1.54,11.52,11.52,0,0,1-3.45.41H387Zm3.9,3.26V140.4h2.91a10.13,10.13,0,0,0,2.36-.19,3.64,3.64,0,0,0,1.58-.8,4.13,4.13,0,0,0,1-1.87,12.72,12.72,0,0,0,.39-3.54,11.71,11.71,0,0,0-.39-3.44,4.34,4.34,0,0,0-1.11-1.87,3.71,3.71,0,0,0-1.8-.91,18,18,0,0,0-3.21-.19Z"/><path class="cls-3" d="M413.67,143.65V124.33H428v3.26H417.57v4.29h9.7v3.26h-9.7v5.26h10.8v3.25Z"/><path class="cls-3" d="M453.31,143.65V124.33h3.91v19.32Z"/><path class="cls-3" d="M468.1,143.65V124.33h3.8l7.91,12.9v-12.9h3.62v19.32h-3.91l-7.79-12.6v12.6Z"/><path class="cls-3" d="M518.31,136.55v-3.26h8.41V141a10.59,10.59,0,0,1-3.55,2.09,13,13,0,0,1-4.72.9,10.53,10.53,0,0,1-5.28-1.27,8.08,8.08,0,0,1-3.39-3.64,11.7,11.7,0,0,1-1.13-5.15,11.14,11.14,0,0,1,1.26-5.36,8.44,8.44,0,0,1,3.71-3.6,10,10,0,0,1,4.62-1,9.23,9.23,0,0,1,5.63,1.51,6.83,6.83,0,0,1,2.6,4.17l-3.88.72a4,4,0,0,0-1.53-2.24,4.64,4.64,0,0,0-2.82-.83,5.27,5.27,0,0,0-4.06,1.62,6.82,6.82,0,0,0-1.51,4.81,7.58,7.58,0,0,0,1.53,5.17,5.1,5.1,0,0,0,4,1.72,6.72,6.72,0,0,0,2.46-.48,8.71,8.71,0,0,0,2.12-1.17v-2.45Z"/><path class="cls-3" d="M537.45,143.65V124.33h14.33v3.26H541.35v4.29h9.7v3.26h-9.7v5.26h10.8v3.25Z"/><path class="cls-3" d="M562.6,143.65V124.33h8.21a14,14,0,0,1,4.5.52,4.37,4.37,0,0,1,2.25,1.85,5.58,5.58,0,0,1,.84,3,5.15,5.15,0,0,1-1.28,3.6,6.11,6.11,0,0,1-3.82,1.78,9.46,9.46,0,0,1,2.09,1.62,22.16,22.16,0,0,1,2.22,3.14l2.36,3.77h-4.66l-2.83-4.2a26.18,26.18,0,0,0-2.05-2.84,3.05,3.05,0,0,0-1.18-.81,6.52,6.52,0,0,0-2-.22h-.79v8.07Zm3.9-11.15h2.89a14.65,14.65,0,0,0,3.5-.24,2.12,2.12,0,0,0,1.1-.82,2.53,2.53,0,0,0,.39-1.45,2.29,2.29,0,0,0-.52-1.57,2.4,2.4,0,0,0-1.47-.76c-.31,0-1.26-.07-2.85-.07h-3Z"/><path class="cls-3" d="M589.16,143.65V124.33H595l3.5,13.18L602,124.33h5.86v19.32H604.2V128.44l-3.84,15.21h-3.75l-3.83-15.21v15.21Z"/><path class="cls-3" d="M636.26,143.65H632l-1.68-4.39H622.6l-1.6,4.39h-4.13l7.52-19.32h4.13ZM629.07,136l-2.66-7.18L623.8,136Z"/><path class="cls-3" d="M645.5,143.65V124.33h3.79l7.91,12.9v-12.9h3.63v19.32h-3.92l-7.79-12.6v12.6Z"/><path class="cls-3" d="M677.16,143.65v-8.13l-7.08-11.19h4.57L679.2,132l4.46-7.64h4.49l-7.1,11.22v8.1Z"/><path class="cls-2" d="M233,79c-.46-1.37-1-2.73-1.54-4.07A60.28,60.28,0,0,0,228.6,69a65.91,65.91,0,0,0-3.57-5.7c-17.52-25-54.45-42.3-97.23-42.38h-.57C84.46,20.94,47.52,38.22,30,63.25a60.41,60.41,0,0,0-9.14,19.53,53.25,53.25,0,0,0,0,26.54,60.87,60.87,0,0,0,10.62,21.55c18.09,24,54.3,40.38,96,40.38s78-16.38,96-40.38c7.86-10.41,12.3-22.26,12.3-34.82A53.57,53.57,0,0,0,233,79ZM127.25,26.54h.54c25.53.1,47.75,15,59.08,36.71H68.16C79.49,41.49,101.71,26.64,127.25,26.54ZM71.55,37.83a127,127,0,0,1,19-6.61,74.79,74.79,0,0,0-28.74,32H37.09C45.26,53,57.08,44.25,71.55,37.83Zm1.32,117c-14.06-6-25.75-14.27-34.1-24h24a74.64,74.64,0,0,0,27.73,30A124.53,124.53,0,0,1,72.87,154.85Zm-3.61-24h116.5c-11.66,20.73-33.4,34.71-58.25,34.71S80.93,151.6,69.26,130.87Zm112.9,24a127.54,127.54,0,0,1-17.67,6,74.64,74.64,0,0,0,27.73-30h24C207.91,140.58,196.22,148.82,182.16,154.85Zm11.06-91.6a74.67,74.67,0,0,0-28.74-32,126.21,126.21,0,0,1,19,6.61C198,44.25,209.77,53,217.94,63.25Z"/><path class="cls-1" d="M158.31,96.22c1.18.36,2.38.65,3.53,1.09,4.45,1.72,6.74,5.26,6.89,10.54.15,5.65-2.16,10.15-6.52,11.89a22.94,22.94,0,0,1-7.52,1.75c-7.22.25-14.45.08-21.67.17-2,0-2.82-1-2.81-3.42q0-21.45,0-42.89c0-1.77.24-3.36,2.08-3.32,8.53.16,17.09,0,25.6.71,5.35.44,8.34,4.53,8.81,10.05.56,6.66-1.82,10.74-7.2,12.39-.38.11-.76.28-1.14.42Zm-18,15.1c4.2,0,8.26.15,12.31-.06,1.68-.09,2.73-1.62,2.82-4.18s-.63-5-2.53-5.16c-4.16-.35-8.35-.11-12.6-.11Zm0-19.85c3.73,0,7.29.12,10.84,0,2-.09,2.92-1.85,3-4.61s-.8-4.6-2.84-4.69c-3.6-.16-7.22,0-11,0Z"/><path class="cls-1" d="M218.82,103.89c-1.34,9.72-6.26,15.85-14.75,17.28a36.2,36.2,0,0,1-12.92-.19c-7.47-1.46-12.52-7.82-13.43-16.64A79.11,79.11,0,0,1,177.64,89c.9-9.59,6.06-16,14.26-17.38a36.67,36.67,0,0,1,12.41,0c8.34,1.45,13.42,7.88,14.56,17.51A117,117,0,0,1,218.82,103.89ZM207.52,90c-1.07-5.5-4.28-8.08-9.61-7.93s-8.55,2.81-9.14,8.21a57.85,57.85,0,0,0,0,12.27c.42,4,2.56,6.75,6.11,7.69,7.91,2.09,12.76-2.21,13.05-11.55A70.18,70.18,0,0,0,207.52,90Z"/><path class="cls-1" d="M67.85,119.3c-3.92,2.36-9,2.36-15.36,2.36-2.79,0-12.45-.17-15-.73a2.69,2.69,0,0,1-.85-2v-5.38A2.69,2.69,0,0,1,38.76,111c1.23.1,16.45.93,20.46-.24h0a4.12,4.12,0,0,0-.11-8.23c-.38,0-13.18-1.57-16.4-3C38.58,97.57,36.33,93.15,36,88a17.63,17.63,0,0,1,1.12-7.88c3.4-7.9,12.28-9.54,20-9.23,3.59.14,7.87.29,11.29,1.46,4,1.37,3.73,6.1,1.88,9.2-1.41,2.35-3.94,1.6-6.27,1.35-3.3-.37-15.3-2.26-16.13,2.57-1.17,6.9,3.82,6,6.4,6.23,5.88.5,11.28.84,15.65,4C77.66,101.38,75.54,114.66,67.85,119.3Z"/><path class="cls-1" d="M117,111.19H94.55v-9.76h18.92a2.94,2.94,0,0,0,2.94-2.94V93.94A2.94,2.94,0,0,0,113.47,91H94.53V82.56h18.33a13.66,13.66,0,0,0,3.64-.17,2.93,2.93,0,0,0,2.6-2.91V74.93A2.94,2.94,0,0,0,116.16,72H86.77c-3.1,0-3.4.35-3.41,4,0,13.9,0,27.81,0,41.71,0,2.84.81,4,3.35,3.92s30.33,0,30.33,0a2.94,2.94,0,0,0,2.94-3v-4.54A2.93,2.93,0,0,0,117,111.19Z"/></svg>